# xmcd
#
# Track frame offsets: 
#        150
#        16297
#        36196
#        54854
#        69763
#        85852
#        106030
#        125540
#        143765
#        160907
#        176412
#        194962
#
# Disc length: 2844 seconds
#
# Revision: 2
# Processed by: cddbd v1.5.2PL0 Copyright (c) Steve Scherf et al.
# Submitted via: ExactAudioCopy v0.99pb3
#
DISCID=970b1a0c
DTITLE=Colin James - Rooftops and Satellites
DYEAR=2009
DGENRE=Blues
TTITLE0=Man's Gotta be a Stone
TTITLE1=Wavelength
TTITLE2=Lost Again
TTITLE3=Johnny Coolman
TTITLE4=Love is Calling
TTITLE5=Find my Home
TTITLE6=Stronger
TTITLE7=Corrina
TTITLE8=More Than You Needed
TTITLE9=Better Than I Can Imagine
TTITLE10=Photograph
TTITLE11=If You've Gotta Go Go Now
EXTD=
EXTT0=
EXTT1=
EXTT2=
EXTT3=
EXTT4=
EXTT5=
EXTT6=
EXTT7=
EXTT8=
EXTT9=
EXTT10=
EXTT11=
PLAYORDER=
